<svg width="318" height="318" viewBox="0 0 318 318" fill="none" xmlns="http://www.w3.org/2000/svg">
<rect width="318" height="318" fill="white"/>
<path fill-rule="evenodd" clip-rule="evenodd" d="M266.272 180.2C266.272 124.468 221.092 79.288 165.36 79.288C109.628 79.288 60.1791 124.563 64.448 180.2C69.536 246.513 266.272 233.882 266.272 180.2Z" fill="#E8342B"/>
<path d="M85.6979 178.923C86.0279 178.893 86.4588 178.927 86.5524 179.245C86.5552 179.629 86.0694 179.788 85.6889 179.835C83.6378 180.09 81.5867 180.346 79.5356 180.601C80.4891 181.41 80.5837 183.015 79.7771 183.971C78.9705 184.927 77.4289 185.123 76.3734 184.452C76.0213 184.228 75.7214 183.925 75.3513 183.733C74.9812 183.54 74.4922 183.483 74.1717 183.75C73.4472 184.353 72.3547 184.191 71.4878 183.82C70.6285 183.453 69.7806 182.826 69.5805 181.913C69.3823 181.009 69.8764 180.097 70.4606 179.379C71.0447 178.66 71.7504 178.01 72.1014 177.153C72.6162 175.896 74.1365 175.27 75.4832 175.448C76.8298 175.625 78.009 176.445 78.9898 177.385C79.6213 177.99 80.6458 177.753 81.4806 177.492C82.3155 177.231 83.3638 177.038 83.9486 177.688" fill="white"/>
<path fill-rule="evenodd" clip-rule="evenodd" d="M204.116 175.393C204.116 165.982 211.072 163.813 215.486 163.924C219.9 164.035 224.111 166.877 225.749 170.84C227.387 174.804 226.366 179.662 223.266 182.701C220.165 185.739 213.619 185.776 211.732 185.204C209.845 184.631 204.116 180.646 204.116 175.393Z" fill="white"/>
<path fill-rule="evenodd" clip-rule="evenodd" d="M222.01 168.911C225.746 168.612 229.584 169.975 232.295 172.563C236.495 176.574 237.579 183.472 234.813 188.578C232.046 193.684 225.675 196.542 220.021 195.214C214.637 193.948 210.325 189.016 209.789 183.511C209.253 178.007 212.533 172.336 217.572 170.056C218.971 169.423 220.48 169.034 222.01 168.911M228.493 171.492C227.171 170.52 225.718 169.707 224.146 169.393C222.358 169.036 220.484 169.349 218.807 170.109C214.544 172.039 211.637 177.039 211.915 182.026C212.193 187.012 215.656 191.614 220.126 192.886C224.596 194.158 229.728 191.976 232.167 187.733C234.607 183.49 234.132 177.525 231.031 173.82C230.285 172.929 229.413 172.168 228.493 171.492V171.492Z" fill="#00160A"/>
<path fill-rule="evenodd" clip-rule="evenodd" d="M108.94 176.067C108.9 175.454 108.905 174.834 109.013 174.229C109.096 173.771 109.236 173.325 109.377 172.881C109.68 171.923 109.984 170.962 110.399 170.047C112.434 165.562 117.299 162.525 122.222 162.653C127.146 162.78 131.842 166.059 133.669 170.633C135.497 175.206 134.358 180.811 130.9 184.318C127.441 187.824 121.861 189.042 117.252 187.306C112.643 185.57 109.255 180.982 108.94 176.067" fill="white"/>
<path fill-rule="evenodd" clip-rule="evenodd" d="M122.147 120.657C122.172 122.604 121.674 124.686 122.575 126.412C124.243 129.61 128.929 129.016 132.375 127.952C129.543 124.729 126.71 121.505 123.877 118.281C129.745 112.289 135.614 106.298 141.482 100.306C141.971 99.8065 142.536 99.2727 143.235 99.2591C144.041 99.2434 144.672 99.9178 145.188 100.537C147.11 102.843 149.032 105.148 150.954 107.454C152.538 109.353 154.046 112.43 152.108 113.966C159.38 113.472 166.652 112.979 173.924 112.485C172.562 104.708 175.064 95.1338 177.535 87.634C177.781 86.8864 178.079 86.0734 178.762 85.6823C179.24 85.4084 179.819 85.3974 180.371 85.3936C193.648 85.3021 206.925 85.2105 220.202 85.1189C221.006 85.1134 221.855 85.119 222.55 85.5238C223.146 85.8712 223.548 86.4669 223.924 87.0454C235.157 104.314 242.169 126.002 244.186 146.503C244.439 149.074 247.734 167.49 244.186 168.036C227.287 170.637 230.599 155.322 212.752 157.563C198.088 159.403 200.859 168.036 192.383 169.718C184.77 171.229 158.801 171.605 150.384 172.027C138.836 172.605 138.02 155.147 120.434 155.857C102.848 156.566 103.25 176.534 93.7762 174.248C93.3812 174.153 89.0918 171.658 88.9951 171.359C87.599 167.044 86.5522 151.252 86.5522 151.252L83.2451 150.518C83.2451 150.518 83.0021 142.365 83.2451 142.105C83.6732 141.646 91.1699 142.469 94.4144 142.105C93.4558 135.448 92.4973 128.792 91.5388 122.136C91.456 121.561 91.3845 120.93 91.6969 120.44C92.0442 119.896 92.7417 119.716 93.3736 119.584C101.828 117.817 110.432 116.764 119.063 116.437C121.009 116.363 122.121 118.71 122.147 120.657Z" fill="white"/>
<path fill-rule="evenodd" clip-rule="evenodd" d="M105.085 138.817L101.279 139.088L99.1401 118.498L102.473 117.95L105.085 138.817Z" fill="#FFB61D"/>
<path fill-rule="evenodd" clip-rule="evenodd" d="M194.969 99.5999C196 99.4017 215.772 113.123 215.568 113.346C215.363 113.569 194.561 99.6783 194.969 99.5999Z" fill="#E7EAEE"/>
<path fill-rule="evenodd" clip-rule="evenodd" d="M203.449 99.5999C204.249 99.4575 214.383 106.309 214.101 106.708C213.819 107.107 202.938 99.6909 203.449 99.5999Z" fill="#E7EAEE"/>
<path fill-rule="evenodd" clip-rule="evenodd" d="M192.849 103.84C192.465 103.161 203.806 111.008 203.501 110.948C200.579 110.377 192.962 104.039 192.849 103.84Z" fill="#E7EAEE"/>
<path fill-rule="evenodd" clip-rule="evenodd" d="M191.509 125.978C191.758 126.175 191.656 126.621 191.375 126.768C191.094 126.915 190.737 126.817 190.488 126.62C189.74 126.027 189.895 124.77 190.55 124.075C191.205 123.381 192.177 123.104 193.099 122.856C193.482 122.754 193.864 122.651 194.247 122.548C195.027 122.338 195.857 122.129 196.631 122.361C197.405 122.593 198.05 123.451 197.75 124.201C197.561 124.673 197.061 124.959 196.56 125.049C196.06 125.139 195.547 125.071 195.04 125.036C194.043 124.968 193.038 125.034 192.058 125.23C191.866 125.268 191.664 125.318 191.526 125.457C191.389 125.597 191.355 125.857 191.509 125.978Z" fill="#00160A"/>
<path fill-rule="evenodd" clip-rule="evenodd" d="M196.526 168.745C196.267 169.817 196.008 170.888 195.749 171.959C195.67 172.286 195.583 172.629 195.353 172.876C195.011 173.242 194.459 173.294 193.959 173.323C178.218 174.225 162.466 174.915 146.707 175.392C145.641 175.424 144.637 174.817 143.938 174.012C143.239 173.208 142.794 172.219 142.359 171.246C143.048 171.079 143.7 171.627 144.12 172.199C144.54 172.77 144.909 173.444 145.561 173.722C145.99 173.905 146.474 173.883 146.94 173.858C162.244 173.036 177.547 172.215 192.851 171.393C193.402 171.363 194.001 171.315 194.411 170.945C194.832 170.564 194.933 169.953 195.18 169.441C195.427 168.93 196.033 168.462 196.526 168.745V168.745Z" fill="#00160A"/>
<path fill-rule="evenodd" clip-rule="evenodd" d="M78.7785 177.895C78.0344 177.101 77.0937 176.491 76.0641 176.137C75.3651 175.896 74.5642 175.781 73.9079 176.121C73.2516 176.461 72.8855 177.4 73.3471 177.977C73.5901 178.281 73.0417 178.569 72.6617 178.652C71.5262 178.901 70.6693 180.16 70.9911 181.277C71.313 182.394 72.8754 182.977 73.7767 182.243C74.103 181.977 74.3217 181.589 74.6753 181.36C75.0289 181.132 75.6248 181.18 75.7335 181.587C75.9627 182.444 76.7444 183.125 77.625 183.235C78.2 183.307 78.8804 183.072 79.0586 182.521C79.3744 181.544 77.9336 180.532 78.4241 179.63C78.6715 179.175 79.27 179.077 79.7857 179.031C81.7564 178.854 83.7272 178.676 85.6979 178.499C86.0279 178.469 86.4588 178.503 86.5522 178.821C86.5552 179.205 86.0694 179.364 85.6889 179.411C83.6378 179.666 81.5867 179.922 79.5356 180.177C80.4891 180.986 80.5837 182.591 79.7771 183.547C78.9705 184.503 77.4289 184.699 76.3734 184.028C76.0213 183.804 75.7214 183.501 75.3513 183.309C74.9812 183.116 74.4922 183.059 74.1717 183.326C73.4472 183.929 72.3547 183.767 71.4878 183.396C70.6285 183.029 69.7806 182.402 69.5805 181.489C69.3823 180.585 69.8764 179.673 70.4606 178.955C71.0447 178.236 71.7504 177.586 72.1014 176.729C72.6162 175.472 74.1365 174.846 75.4832 175.024C76.8298 175.201 78.009 176.021 78.9898 176.961C79.6213 177.566 80.6458 177.329 81.4806 177.068C82.3155 176.807 83.3638 176.614 83.9486 177.264C82.7448 177.538 81.5409 177.811 80.3371 178.084C79.8014 178.206 79.1539 178.297 78.7785 177.895Z" fill="#E7EAEE"/>
<path fill-rule="evenodd" clip-rule="evenodd" d="M102.881 176.73C102.823 175.826 102.83 174.913 102.99 174.022C103.111 173.346 103.318 172.689 103.525 172.034C103.972 170.622 104.42 169.206 105.032 167.858C108.031 161.248 115.202 156.771 122.458 156.959C129.714 157.148 136.636 161.98 139.329 168.721C142.022 175.462 140.344 183.723 135.247 188.891C130.15 194.059 121.926 195.853 115.133 193.295C108.34 190.736 103.346 183.974 102.881 176.73M106.688 169.968C106.365 170.826 106.114 171.725 106.115 172.641C106.118 175.45 106.339 178.301 107.293 180.943C109.297 186.497 114.7 190.655 120.58 191.192C126.46 191.729 132.517 188.63 135.54 183.558C138.563 178.486 138.413 171.697 135.187 166.752C131.962 161.806 125.824 158.934 119.958 159.603C114.091 160.272 108.766 164.441 106.688 169.968H106.688Z" fill="#00160A"/>
<path fill-rule="evenodd" clip-rule="evenodd" d="M221.516 159.587C227.667 162.173 231.949 168.682 231.887 175.354C231.826 182.027 227.425 188.456 221.227 190.928C215.029 193.399 207.411 191.763 202.775 186.964C198.139 182.165 196.766 174.496 199.45 168.387C200.085 166.942 200.944 165.563 202.164 164.562C204.929 162.295 207.793 159.979 211.214 158.936C214.572 157.913 218.279 158.227 221.516 159.587M207.207 162.816C206.399 163.333 205.636 163.936 205.039 164.686C204.407 165.479 203.98 166.412 203.559 167.334C202.928 168.717 202.294 170.107 201.9 171.575C200.547 176.62 202.377 182.368 206.379 185.724C210.381 189.08 216.342 189.885 221.102 187.736C225.862 185.588 229.197 180.604 229.397 175.385C229.596 170.166 226.665 164.954 222.116 162.388C217.567 159.823 211.608 160.004 207.207 162.816Z" fill="#00160A"/>
<path fill-rule="evenodd" clip-rule="evenodd" d="M216.078 91.1041C205.409 91.3312 194.74 91.5584 184.071 91.7855C183.805 91.7912 183.51 91.8087 183.324 91.9987C183.203 92.1214 183.152 92.2944 183.106 92.4603C180.74 101.089 182.657 110.23 184.264 119.032C185.266 124.519 186.145 130.028 186.899 135.555C187.442 139.535 187.921 143.537 187.888 147.554C187.877 148.831 188.775 149.985 189.893 150.602C191.011 151.219 192.32 151.386 193.595 151.448C196.283 151.578 198.99 151.292 201.591 150.604C202.075 150.475 202.577 150.332 203.07 150.424C203.562 150.516 204.036 150.93 204.006 151.43C203.972 152.009 203.346 152.341 202.8 152.535C199.366 153.757 195.596 154.019 192.026 153.286C190.313 152.933 188.527 152.269 187.545 150.822C186.987 149.999 186.748 149.006 186.531 148.035C184.344 138.267 183.252 128.293 182.186 118.34C181.217 109.296 180.264 100.18 181.077 91.1205C181.102 90.8405 181.133 90.5492 181.281 90.3106C181.6 89.7988 182.304 89.7293 182.907 89.7145C194.192 89.4374 205.477 89.1602 216.762 88.8831C217.402 88.8674 218.09 88.8651 218.618 89.227C219.007 89.4941 219.25 89.9217 219.48 90.3343C223.571 97.679 227.663 105.024 231.754 112.368C232.573 113.838 233.417 115.526 232.908 117.129C232.531 118.318 231.454 119.18 230.284 119.615C229.115 120.049 227.847 120.12 226.601 120.187C224.365 120.306 222.129 120.425 219.893 120.545C214.37 120.84 208.846 121.134 203.322 121.429C203.005 121.446 202.651 121.451 202.416 121.236C202.074 120.924 202.222 120.313 202.587 120.028C202.952 119.743 203.442 119.693 203.904 119.654C212.24 118.951 220.576 118.248 228.912 117.545C229.565 117.49 230.018 116.804 230.048 116.149C230.077 115.494 229.794 114.871 229.514 114.277C225.903 106.603 221.992 99.0688 217.795 91.6984C217.479 91.1442 216.716 91.0905 216.078 91.1041V91.1041Z" fill="#00160A"/>
<path fill-rule="evenodd" clip-rule="evenodd" d="M115.465 164.801C119.194 162.738 124.044 162.979 127.634 165.275C131.223 167.572 133.46 171.785 133.507 176.046C133.555 180.386 131.202 184.832 127.271 186.673C125.901 187.315 124.391 187.635 122.879 187.694C117.369 187.909 111.856 184.286 110.09 179.062C108.325 173.838 110.641 167.471 115.465 164.801M123.975 185.827C125.424 185.585 126.831 185.069 128.063 184.269C129.326 183.45 130.397 182.337 131.166 181.044C133.168 177.676 132.912 173.153 130.69 169.927C128.468 166.701 124.449 164.86 120.539 165.099C119.081 165.188 117.634 165.546 116.331 166.206C111.834 168.481 109.769 174.485 111.672 179.151C113.575 183.818 119.005 186.656 123.975 185.827L123.975 185.827Z" fill="#00160A"/>
<path fill-rule="evenodd" clip-rule="evenodd" d="M154.464 157.294C153.815 156.718 152.779 156.747 152.146 156.153C152.325 155.508 152.92 155.084 153.338 154.562C154.325 153.327 154.222 151.356 153.11 150.232C152.547 149.663 151.731 149.227 151.583 148.441C152.745 148.242 153.92 147.867 154.796 147.076C155.671 146.285 156.179 145.004 155.794 143.889C155.676 143.546 155.478 143.219 155.474 142.857C155.469 142.495 155.784 142.094 156.132 142.193C157.998 142.725 160.178 141.485 160.673 139.61C160.886 138.804 162.072 138.884 162.816 139.258C163.56 139.633 164.508 140.107 165.14 139.565C165.676 139.105 165.774 138.039 166.479 138.052C166.844 138.059 167.102 138.392 167.357 138.653C168.235 139.556 169.696 139.829 170.842 139.306C171.242 139.122 171.613 138.85 172.048 138.78C172.483 138.71 173.019 138.955 173.046 139.394C173.131 140.724 174.584 141.786 175.876 141.463C176.37 141.339 177.207 141.366 177.04 141.847C176.53 143.313 177.621 145.109 179.157 145.332C179.548 145.389 179.963 145.362 180.317 145.538C180.671 145.714 180.906 146.216 180.64 146.508C179.497 147.763 179.979 150.09 181.527 150.786C181.944 150.974 181.845 151.625 181.53 151.956C181.214 152.287 180.759 152.488 180.528 152.883C180.126 153.569 180.604 154.445 181.188 154.985C181.772 155.525 182.505 155.979 182.779 156.726C181.68 156.306 180.319 156.738 179.663 157.715C179.007 158.691 179.122 160.115 179.926 160.973C179.501 161.736 178.367 161.433 177.497 161.509C176.439 161.602 175.512 162.519 175.407 163.576C175.362 164.036 175.453 164.518 175.289 164.951C175.125 165.383 174.527 165.695 174.2 165.369C172.985 164.153 170.659 164.398 169.722 165.839C169.5 166.182 169.281 166.619 168.874 166.656C168.234 166.714 168.03 165.789 167.509 165.413C166.863 164.947 165.946 165.476 165.492 166.13C165.038 166.785 164.754 167.603 164.086 168.036C162.816 167.104 163.201 164.465 161.641 164.249C160.967 164.156 160.374 164.656 159.736 164.892C159.098 165.128 158.115 164.813 158.234 164.143C158.429 163.047 158.264 161.587 157.188 161.303C156.126 161.023 154.768 162.127 154.035 161.309C154.829 160.069 155.565 158.272 154.464 157.294ZM155.172 150.473C154.684 151.356 154.773 152.427 154.682 153.431C154.591 154.435 154.169 155.569 153.206 155.865C154.295 155.942 155.315 156.664 155.749 157.666C156.184 158.668 156.015 159.906 155.327 160.754C156.22 160.085 157.582 160.28 158.392 161.047C159.202 161.813 159.493 163.023 159.328 164.126C160.246 163.47 161.541 163.386 162.536 163.92C163.531 164.453 164.178 165.578 164.14 166.706C164.414 165.705 165.201 164.83 166.205 164.567C167.208 164.303 168.386 164.732 168.891 165.638C168.938 164.955 169.583 164.471 170.217 164.212C171.575 163.657 173.167 163.705 174.489 164.342C174.328 162.211 176.556 160.254 178.649 160.691C177.994 160.008 178.031 158.896 178.395 158.023C178.854 156.922 179.927 155.963 181.113 156.089C180.425 155.837 179.869 155.247 179.657 154.545C179.303 153.367 179.948 152.053 180.952 151.341C179.685 151.075 179.277 149.499 179.12 148.214C179.038 147.544 179.078 146.667 179.718 146.452C178.398 146.079 177.206 145.267 176.377 144.175C175.993 143.67 175.718 142.872 176.205 142.466C175.194 142.414 174.196 142.111 173.326 141.591C172.664 141.196 172.013 140.471 172.264 139.742C170.493 140.617 168.262 140.478 166.613 139.39C166.114 140.174 165.137 140.554 164.209 140.551C163.28 140.547 162.385 140.216 161.534 139.843C161.635 140.457 161.22 141.035 160.771 141.466C159.628 142.562 158.091 143.238 156.511 143.341C157.214 145.758 155.341 148.579 152.84 148.869C153.445 149.609 154.273 150.15 155.172 150.473Z" fill="#00160A"/>
<path fill-rule="evenodd" clip-rule="evenodd" d="M216.615 185.109C215.031 185.325 213.399 185.171 211.884 184.663C207.079 183.052 203.939 177.557 204.989 172.6C206.039 167.643 211.138 163.893 216.183 164.369C221.228 164.844 225.536 169.48 225.642 174.546C225.747 179.612 221.636 184.423 216.615 185.109M220.241 182.968C223.616 180.919 225.469 176.636 224.65 172.773C223.832 168.91 220.401 165.746 216.485 165.243C212.568 164.74 208.449 166.933 206.68 170.463C204.911 173.993 205.62 178.606 208.368 181.442C211.366 184.536 216.558 185.203 220.241 182.968Z" fill="#00160A"/>
<path fill-rule="evenodd" clip-rule="evenodd" d="M167.293 140.715C171.6 140.665 175.833 143.23 177.785 147.069C179.736 150.909 179.312 155.84 176.733 159.29C174.154 162.74 169.545 164.543 165.31 163.759C161.569 163.066 158.248 160.412 156.748 156.915C155.248 153.419 155.612 149.183 157.688 145.995C159.763 142.806 163.489 140.758 167.293 140.715ZM178.282 151.63C178.174 149.914 177.65 148.227 176.768 146.752C174.078 142.254 167.843 140.285 163.057 142.422C158.272 144.559 155.577 150.516 157.13 155.522C158.684 160.527 164.279 163.911 169.433 162.962C174.588 162.014 178.612 156.86 178.282 151.63V151.63Z" fill="#00160A"/>
<path fill-rule="evenodd" clip-rule="evenodd" d="M173.318 152.364C172.505 153.314 171.204 153.822 169.962 153.676C169.532 153.625 168.87 153.732 168.985 154.149C170.453 154.665 171.921 155.181 173.389 155.697C174.202 155.983 174.435 157.151 173.951 157.865C173.467 158.578 172.511 158.844 171.655 158.739C170.8 158.634 170.017 158.222 169.256 157.818C168.489 157.41 167.721 157.003 166.954 156.595C167.989 156.186 169.112 156.814 170.094 157.34C171.075 157.866 172.378 158.277 173.219 157.548C173.347 157.438 173.459 157.296 173.482 157.129C173.536 156.73 173.092 156.464 172.719 156.312C171.54 155.832 170.36 155.352 169.181 154.873C168.586 154.63 167.884 154.84 167.374 155.231C166.863 155.622 166.501 156.17 166.131 156.695C165.347 157.808 164.404 158.926 163.097 159.305C161.79 159.683 160.094 158.944 159.959 157.59C159.875 156.739 160.409 155.943 161.042 155.368C161.674 154.792 162.427 154.351 163.007 153.722C163.08 153.643 163.154 153.553 163.163 153.445C163.181 153.221 162.929 153.083 162.718 153.005C161.579 152.585 160.441 152.164 159.302 151.744C158.81 151.563 159.116 150.712 159.637 150.649C160.158 150.586 160.615 150.963 161.031 151.282C162.13 152.125 163.654 152.716 164.88 152.074C165.755 151.615 166.258 150.542 166.051 149.576C165.769 148.26 166.263 146.808 167.288 145.936C168.314 145.065 169.828 144.812 171.08 145.303C170.124 145.753 169.688 147.059 170.182 147.994C170.676 148.928 172 149.304 172.911 148.767C173.245 148.57 173.689 148.28 173.958 148.558C174.032 148.636 174.068 148.742 174.097 148.846C174.433 150.05 174.131 151.414 173.318 152.364ZM167.175 148.701C167.172 150.14 167.98 151.622 169.315 152.16C170.65 152.697 172.421 152.032 172.856 150.66C172.953 150.355 172.787 149.864 172.495 149.996C171.7 150.356 170.761 149.939 170.089 149.381C169.651 149.018 169.255 148.573 169.087 148.029C168.92 147.484 169.03 146.828 169.466 146.462C168.781 146.309 168.019 146.595 167.605 147.161C167.285 147.598 167.177 148.159 167.175 148.701ZM161.375 157.771C163.112 159.489 164.146 157.239 164.567 156.756C165.542 155.636 166.576 154.567 167.662 153.555C167.876 153.356 167.884 153.006 167.76 152.742C167.636 152.478 167.409 152.279 167.188 152.088C166.859 151.804 166.329 151.885 165.987 152.152C165.644 152.419 159.637 156.054 161.375 157.771Z" fill="#FFB61D"/>
<path fill-rule="evenodd" clip-rule="evenodd" d="M128.306 169.759C132.042 169.46 135.88 170.823 138.591 173.411C142.791 177.422 143.875 184.32 141.109 189.426C138.342 194.532 131.971 197.39 126.317 196.062C120.933 194.796 116.621 189.864 116.085 184.359C115.549 178.855 118.829 173.184 123.868 170.904C125.267 170.271 126.776 169.882 128.306 169.759M134.789 173.964C133.467 173.065 132.014 172.313 130.442 172.022C128.654 171.692 126.78 171.982 125.103 172.684C120.84 174.47 117.933 179.097 118.211 183.711C118.489 188.325 121.952 192.584 126.422 193.761C130.892 194.938 136.024 192.919 138.463 188.992C140.903 185.066 140.428 179.547 137.327 176.119C136.581 175.294 135.709 174.59 134.789 173.964V173.964Z" fill="#00160A"/>
<path fill-rule="evenodd" clip-rule="evenodd" d="M122.146 118.113C122.172 120.06 121.674 122.142 122.575 123.868C124.243 127.066 128.929 126.472 132.375 125.408C129.543 122.185 126.71 118.961 123.877 115.737C129.745 109.745 135.614 103.754 141.482 97.7621C141.971 97.2625 142.536 96.7287 143.235 96.715C144.041 96.6993 144.672 97.3738 145.188 97.9932C147.11 100.299 149.032 102.604 150.954 104.91C152.538 106.809 154.046 109.886 152.108 111.422C159.38 110.928 166.652 110.435 173.924 109.941C172.562 102.163 175.064 94.2858 177.535 86.786C177.781 86.0384 178.079 85.2254 178.762 84.8343C179.24 84.5604 179.819 84.5494 180.371 84.5456C193.648 84.454 206.925 84.3625 220.202 84.2709C221.006 84.2654 221.855 84.271 222.55 84.6758C223.146 85.0232 223.548 85.6189 223.924 86.1974C235.157 103.466 242.169 123.458 244.186 143.959C244.439 146.53 244.715 149.34 246.53 151.179C249.294 153.979 249.591 158.858 247.188 161.972C248.955 163.255 248.519 166.215 246.901 167.681C245.283 169.146 242.983 169.521 240.822 169.833C237.955 170.246 234.835 170.616 232.328 169.163C236.434 168.201 240.545 167.262 244.662 166.345C242.836 154.321 241.01 142.296 239.184 130.272C238.582 126.307 237.977 122.328 236.854 118.478C235.646 114.331 233.852 110.384 232.064 106.452C229.248 100.261 226.432 94.0689 223.616 87.8772C223.309 87.2026 222.977 86.496 222.372 86.0679C221.639 85.5495 220.672 85.5507 219.775 85.572C207.275 85.8696 194.776 86.1671 182.277 86.4647C181.556 86.4818 180.78 86.5182 180.213 86.9644C179.748 87.3314 179.511 87.9109 179.308 88.4678C174.386 101.916 177.269 116.814 180.204 130.831C180.743 133.407 177.245 134.722 174.624 134.952C144.703 137.575 114.781 140.198 84.8596 142.821C84.4925 145.194 84.389 147.607 84.5515 150.002C86.5429 150.177 88.5342 150.352 90.5256 150.527C89.894 150.776 89.2624 151.024 88.6308 151.273C89.8083 157.461 90.4591 163.749 90.5741 170.047C90.6091 171.964 92.2705 173.541 94.1004 174.113C95.9303 174.684 97.9009 174.471 99.8055 174.253C97.7781 175.102 95.6654 175.967 93.4702 175.859C91.2749 175.752 88.9763 174.367 88.5711 172.207C87.3006 165.433 86.5689 158.558 86.3853 151.668C85.2315 151.696 84.0778 151.724 82.9241 151.752C82.534 148.869 82.377 145.955 82.455 143.047C82.4718 142.421 82.5225 141.737 82.9497 141.279C83.3778 140.82 84.0574 140.723 84.6809 140.653C87.9254 140.289 91.1699 139.925 94.4144 139.561C93.4558 132.904 92.4973 126.248 91.5388 119.592C91.456 119.017 91.3845 118.386 91.6969 117.896C92.0442 117.352 92.7417 117.172 93.3736 117.04C101.828 115.273 110.432 114.22 119.063 113.893C121.009 113.819 122.121 116.166 122.146 118.113ZM95.6385 138.889C95.6601 139.078 95.6925 139.287 95.8413 139.405C95.9861 139.52 96.1905 139.508 96.3744 139.49C104.864 138.684 113.353 137.878 121.842 137.072C122.076 137.05 122.343 137.009 122.471 136.811C122.571 136.656 122.551 136.455 122.526 136.272C121.659 129.759 120.791 123.245 119.924 116.731C119.9 116.553 119.871 116.362 119.75 116.228C119.587 116.048 119.316 116.029 119.073 116.024C110.685 115.84 102.275 116.695 94.0953 118.562C93.8726 118.613 93.6289 118.679 93.5016 118.868C93.3823 119.046 93.402 119.279 93.4262 119.492C94.1637 125.957 94.9011 132.423 95.6385 138.889ZM174.621 112.849C174.584 112.547 174.521 112.202 174.259 112.048C174.092 111.95 173.885 111.958 173.692 111.969C166.134 112.396 158.576 112.822 151.018 113.249C150.851 113.258 150.671 113.273 150.545 113.382C150.362 113.542 150.372 113.825 150.398 114.067C151.09 120.593 151.781 127.118 152.473 133.644C152.495 133.849 152.525 134.072 152.671 134.218C152.859 134.405 153.161 134.394 153.426 134.369C161.268 133.651 169.11 132.932 176.952 132.213C176.175 125.758 175.398 119.303 174.621 112.849ZM134.022 123.843C134.132 123.943 134.253 124.049 134.4 124.066C134.61 124.091 134.792 123.935 134.945 123.79C140.054 118.934 146.011 114.927 151.12 110.071C151.35 109.852 151.598 109.593 151.587 109.275C151.58 109.063 151.455 108.874 151.335 108.699C149.299 105.736 146.286 102.013 144.001 99.2368C143.777 98.9641 143.487 98.6652 143.137 98.7097C142.913 98.7381 142.735 98.9025 142.573 99.0588C136.929 104.496 131.286 109.933 125.642 115.369C125.516 115.491 125.382 115.633 125.384 115.807C125.386 115.982 125.526 116.12 125.655 116.238C128.444 118.773 131.233 121.308 134.022 123.843ZM150.353 126.513C150.309 126.233 150.247 125.922 150.016 125.759C149.811 125.614 149.536 125.631 149.286 125.655C141.473 126.399 133.661 127.143 125.849 127.887C125.441 127.926 124.962 128.011 124.784 128.381C124.686 128.584 124.711 128.823 124.737 129.047C125.001 131.278 125.264 133.509 125.528 135.739C125.565 136.054 125.625 136.408 125.887 136.586C126.096 136.729 126.372 136.712 126.624 136.69C134.704 135.99 142.783 135.289 150.863 134.588C151.064 134.571 151.289 134.541 151.415 134.384C151.546 134.222 151.52 133.989 151.488 133.783C151.11 131.36 150.731 128.936 150.353 126.513ZM148.729 114.862C148.711 114.727 148.648 114.553 148.512 114.563C148.454 114.568 148.406 114.608 148.362 114.646C144.344 118.157 140.325 121.668 136.306 125.179C140.485 124.829 144.659 124.43 148.829 123.984C149.187 123.946 149.601 123.872 149.772 123.555C149.884 123.348 149.855 123.097 149.824 122.863C149.459 120.196 149.094 117.529 148.729 114.862ZM245.712 152.457C246.097 154.678 246.483 156.9 246.868 159.121C246.906 159.341 246.984 159.607 247.203 159.655C247.558 159.733 247.681 159.199 247.632 158.839C247.372 156.916 247.111 154.994 246.851 153.072C246.804 152.728 246.736 152.346 246.458 152.139C246.18 151.931 245.653 152.115 245.712 152.457Z" fill="#00160A"/>
<path fill-rule="evenodd" clip-rule="evenodd" d="M54.6048 196.494C47.1806 196.611 21.6495 198.503 21.2085 197.556C20.6442 196.344 48.4857 194.75 54.5545 194.654L56.4554 194.628C61.9734 194.569 54.6048 196.494 54.6048 196.494ZM111.31 194.174C113.113 194.174 114.525 194.758 113.311 195.184C112.097 195.61 108.17 196.508 101.593 196.659C95.0159 196.81 87.3927 196.966 76.1281 197.188C75.4749 197.201 74.9349 196.682 74.9221 196.029C74.9092 195.376 75.4283 194.836 76.0815 194.823L96.0283 194.416C102.084 194.285 105.874 194.174 111.31 194.174ZM201.412 193.482C202.065 193.471 202.603 193.992 202.613 194.646C202.623 195.299 202.102 195.837 201.449 195.847L198.677 195.881L190.196 195.94C188.489 195.957 119.436 196.398 118.5 195.386C117.564 194.373 119.001 194.19 119.654 194.174C119.654 194.174 190.173 193.572 192.018 193.558L199.07 193.511C199.89 193.503 200.632 193.494 201.412 193.482ZM278.076 191.206C278.076 191.206 280.199 190.839 295.705 192C296.357 192.049 296.845 192.617 296.797 193.268C296.748 193.92 289.08 193.591 278.598 193.572L275.715 193.577C268.018 193.611 260.868 193.819 249.001 194.308L234.022 194.94C227.63 195.202 223.817 195.33 219.18 195.439C218.527 195.455 217.985 194.938 217.969 194.285C217.954 193.631 218.471 193.089 219.124 193.074L222.848 192.977C227.277 192.849 231.829 192.67 239.9 192.326L248.457 191.962C261.838 191.409 269.279 191.206 278.076 191.206Z" fill="#00160A"/>
</svg>
