<svg width="16" height="14" viewBox="0 0 16 14" fill="none" xmlns="http://www.w3.org/2000/svg">
<path d="M1.52676 4.1864V10.6731C1.52676 11.9397 2.42676 12.4597 3.5201 11.8331L5.08676 10.9397C5.42676 10.7464 5.99343 10.7264 6.34676 10.9064L9.84676 12.6597C10.2001 12.8331 10.7668 12.8197 11.1068 12.6264L13.9934 10.9731C14.3601 10.7597 14.6668 10.2397 14.6668 9.81306V3.3264C14.6668 2.05973 13.7668 1.53973 12.6734 2.1664L11.1068 3.05973C10.7668 3.25306 10.2001 3.27306 9.84676 3.09306L6.34676 1.3464C5.99343 1.17306 5.42676 1.1864 5.08676 1.37973L2.2001 3.03306C1.82676 3.2464 1.52676 3.7664 1.52676 4.1864Z" stroke="#1D925D" stroke-width="1.5" stroke-linecap="round" stroke-linejoin="round"/>
</svg>
