<svg width="16" height="16" viewBox="0 0 16 16" fill="none" xmlns="http://www.w3.org/2000/svg">
<path d="M1.52676 5.18637V11.673C1.52676 12.9397 2.42676 13.4597 3.5201 12.833L5.08676 11.9397C5.42676 11.7464 5.99343 11.7264 6.34676 11.9064L9.84676 13.6597C10.2001 13.833 10.7668 13.8197 11.1068 13.6264L13.9934 11.973C14.3601 11.7597 14.6668 11.2397 14.6668 10.813V4.32637C14.6668 3.0597 13.7668 2.5397 12.6734 3.16637L11.1068 4.0597C10.7668 4.25303 10.2001 4.27303 9.84676 4.09303L6.34676 2.34637C5.99343 2.17303 5.42676 2.18637 5.08676 2.3797L2.2001 4.03303C1.82676 4.24637 1.52676 4.76637 1.52676 5.18637Z" stroke="#1D925D" stroke-width="1.5" stroke-linecap="round" stroke-linejoin="round"/>
<path d="M5.70663 2.66638V11.333" stroke="#1D925D" stroke-width="1.5" stroke-linecap="round" stroke-linejoin="round"/>
<path d="M10.4867 4.41327V13.3333" stroke="#1D925D" stroke-width="1.5" stroke-linecap="round" stroke-linejoin="round"/>
</svg>
