<svg width="71" height="70" viewBox="0 0 71 70" fill="none" xmlns="http://www.w3.org/2000/svg">
<rect x="0.5" width="70" height="70" rx="35" fill="#38CB89" fill-opacity="0.1"/>
<path d="M46.7125 21.25H43.0375C41.95 21.25 41.15 21.7 40.7875 22.5C40.5875 22.8625 40.5 23.2875 40.5 23.7875V27.4625C40.5 29.05 41.45 30 43.0375 30H46.7125C47.2125 30 47.6375 29.9125 48 29.7125C48.8 29.35 49.25 28.55 49.25 27.4625V23.7875C49.25 22.2 48.3 21.25 46.7125 21.25ZM47.8875 26.1625C47.7625 26.2875 47.575 26.375 47.375 26.3875H45.6125V27.025L45.625 28.125C45.6125 28.3375 45.5375 28.5125 45.3875 28.6625C45.2625 28.7875 45.075 28.875 44.875 28.875C44.4625 28.875 44.125 28.5375 44.125 28.125V26.375L42.375 26.3875C41.9625 26.3875 41.625 26.0375 41.625 25.625C41.625 25.2125 41.9625 24.875 42.375 24.875L43.475 24.8875H44.125V23.1375C44.125 22.725 44.4625 22.375 44.875 22.375C45.2875 22.375 45.625 22.725 45.625 23.1375L45.6125 24.025V24.875H47.375C47.7875 24.875 48.125 25.2125 48.125 25.625C48.1125 25.8375 48.025 26.0125 47.8875 26.1625Z" fill="#1D925D"/>
<path d="M31.7499 32.975C33.3929 32.975 34.7249 31.6431 34.7249 30C34.7249 28.357 33.3929 27.025 31.7499 27.025C30.1069 27.025 28.7749 28.357 28.7749 30C28.7749 31.6431 30.1069 32.975 31.7499 32.975Z" fill="#1D925D"/>
<path d="M46.7125 30H46.125V35.7625L45.9625 35.625C44.9875 34.7875 43.4125 34.7875 42.4375 35.625L37.2375 40.0875C36.2625 40.925 34.6875 40.925 33.7125 40.0875L33.2875 39.7375C32.4 38.9625 30.9875 38.8875 29.9875 39.5625L25.3125 42.7C25.0375 42 24.875 41.1875 24.875 40.2375V29.7625C24.875 26.2375 26.7375 24.375 30.2625 24.375H40.5V23.7875C40.5 23.2875 40.5875 22.8625 40.7875 22.5H30.2625C25.7125 22.5 23 25.2125 23 29.7625V40.2375C23 41.6 23.2375 42.7875 23.7 43.7875C24.775 46.1625 27.075 47.5 30.2625 47.5H40.7375C45.2875 47.5 48 44.7875 48 40.2375V29.7125C47.6375 29.9125 47.2125 30 46.7125 30Z" fill="#1D925D"/>
</svg>
